# xmcd
#
# Track frame offsets: 
#        150
#        13355
#        27035
#        45283
#        64710
#        77733
#        98853
#        115310
#        135235
#        152570
#        167343
#
# Disc length: 2498 seconds
#
# Revision: 5
# Processed by: cddbd v1.5.2PL0 Copyright (c) Steve Scherf et al.
# Submitted via: ExactAudioCopy v0.95b3
#
DISCID=7809c00b
DTITLE=Baillie and the Boys - Turn the Tide
DYEAR=1988
DGENRE=Country
TTITLE0=She Deserves You
TTITLE1=Safe In The Arms Of Love
TTITLE2=I Can't Turn The Tide
TTITLE3=(Wish I Had A) Heart Of Stone
TTITLE4=Long Shot
TTITLE5=Who Will I Be
TTITLE6=Honest Love
TTITLE7=Lovin' By Numbers
TTITLE8=When It Rains It Pours
TTITLE9=Heartache In Motion
TTITLE10=The Only Lonely One
EXTD=
EXTT0=
EXTT1=
EXTT2=
EXTT3=
EXTT4=
EXTT5=
EXTT6=
EXTT7=
EXTT8=
EXTT9=
EXTT10=
PLAYORDER=
